<svg width="186" height="75" viewBox="0 0 186 75" fill="none" xmlns="http://www.w3.org/2000/svg">
<path d="M67.008 52V29.6H71.168V48.48H82.88V52H67.008ZM93.304 52.224C91.5547 52.224 89.9973 51.8507 88.632 51.104C87.2667 50.336 86.1893 49.2907 85.4 47.968C84.6107 46.6453 84.216 45.1413 84.216 43.456C84.216 41.7493 84.6107 40.2453 85.4 38.944C86.1893 37.6213 87.2667 36.5867 88.632 35.84C89.9973 35.0933 91.5547 34.72 93.304 34.72C95.0747 34.72 96.6427 35.0933 98.008 35.84C99.3947 36.5867 100.472 37.6107 101.24 38.912C102.029 40.2133 102.424 41.728 102.424 43.456C102.424 45.1413 102.029 46.6453 101.24 47.968C100.472 49.2907 99.3947 50.336 98.008 51.104C96.6427 51.8507 95.0747 52.224 93.304 52.224ZM93.304 48.8C94.2853 48.8 95.16 48.5867 95.928 48.16C96.696 47.7333 97.2933 47.1147 97.72 46.304C98.168 45.4933 98.392 44.544 98.392 43.456C98.392 42.3467 98.168 41.3973 97.72 40.608C97.2933 39.7973 96.696 39.1787 95.928 38.752C95.16 38.3253 94.296 38.112 93.336 38.112C92.3547 38.112 91.48 38.3253 90.712 38.752C89.9653 39.1787 89.368 39.7973 88.92 40.608C88.472 41.3973 88.248 42.3467 88.248 43.456C88.248 44.544 88.472 45.4933 88.92 46.304C89.368 47.1147 89.9653 47.7333 90.712 48.16C91.48 48.5867 92.344 48.8 93.304 48.8ZM113.993 58.432C112.414 58.432 110.868 58.2187 109.353 57.792C107.86 57.3867 106.633 56.7893 105.673 56L107.465 52.992C108.212 53.6107 109.15 54.1013 110.281 54.464C111.433 54.848 112.596 55.04 113.769 55.04C115.646 55.04 117.022 54.6027 117.897 53.728C118.772 52.8747 119.209 51.584 119.209 49.856V46.816L119.529 42.944L119.401 39.072V34.912H123.209V49.408C123.209 52.5013 122.42 54.7733 120.841 56.224C119.262 57.696 116.98 58.432 113.993 58.432ZM113.481 51.232C111.86 51.232 110.388 50.8907 109.065 50.208C107.764 49.504 106.729 48.5333 105.961 47.296C105.214 46.0587 104.841 44.608 104.841 42.944C104.841 41.3013 105.214 39.8613 105.961 38.624C106.729 37.3867 107.764 36.4267 109.065 35.744C110.388 35.0613 111.86 34.72 113.481 34.72C114.932 34.72 116.233 35.008 117.385 35.584C118.537 36.16 119.454 37.056 120.137 38.272C120.841 39.488 121.193 41.0453 121.193 42.944C121.193 44.8427 120.841 46.4107 120.137 47.648C119.454 48.864 118.537 49.7707 117.385 50.368C116.233 50.944 114.932 51.232 113.481 51.232ZM114.089 47.84C115.092 47.84 115.988 47.6373 116.777 47.232C117.566 46.8053 118.174 46.2293 118.601 45.504C119.049 44.7573 119.273 43.904 119.273 42.944C119.273 41.984 119.049 41.1413 118.601 40.416C118.174 39.6693 117.566 39.104 116.777 38.72C115.988 38.3147 115.092 38.112 114.089 38.112C113.086 38.112 112.18 38.3147 111.369 38.72C110.58 39.104 109.961 39.6693 109.513 40.416C109.086 41.1413 108.873 41.984 108.873 42.944C108.873 43.904 109.086 44.7573 109.513 45.504C109.961 46.2293 110.58 46.8053 111.369 47.232C112.18 47.6373 113.086 47.84 114.089 47.84ZM136.148 52.224C134.398 52.224 132.841 51.8507 131.476 51.104C130.11 50.336 129.033 49.2907 128.244 47.968C127.454 46.6453 127.06 45.1413 127.06 43.456C127.06 41.7493 127.454 40.2453 128.244 38.944C129.033 37.6213 130.11 36.5867 131.476 35.84C132.841 35.0933 134.398 34.72 136.148 34.72C137.918 34.72 139.486 35.0933 140.852 35.84C142.238 36.5867 143.316 37.6107 144.084 38.912C144.873 40.2133 145.268 41.728 145.268 43.456C145.268 45.1413 144.873 46.6453 144.084 47.968C143.316 49.2907 142.238 50.336 140.852 51.104C139.486 51.8507 137.918 52.224 136.148 52.224ZM136.148 48.8C137.129 48.8 138.004 48.5867 138.772 48.16C139.54 47.7333 140.137 47.1147 140.564 46.304C141.012 45.4933 141.236 44.544 141.236 43.456C141.236 42.3467 141.012 41.3973 140.564 40.608C140.137 39.7973 139.54 39.1787 138.772 38.752C138.004 38.3253 137.14 38.112 136.18 38.112C135.198 38.112 134.324 38.3253 133.556 38.752C132.809 39.1787 132.212 39.7973 131.764 40.608C131.316 41.3973 131.092 42.3467 131.092 43.456C131.092 44.544 131.316 45.4933 131.764 46.304C132.212 47.1147 132.809 47.7333 133.556 48.16C134.324 48.5867 135.188 48.8 136.148 48.8Z" fill="black"/>
<ellipse cx="32" cy="41" rx="23" ry="22" fill="black"/>
</svg>
